<svg xmlns="http://www.w3.org/2000/svg" viewBox="290 93 1897 2320" width="1897" height="2320"><title>Narne Labs</title><path fill="#000" fill-rule="evenodd" d="M1004.3 2388.4C970.6 2384.8 930.9 2374.6 915.7 2365.7C911.9 2363.4 910.5 2361.7 907.3 2355.3C904.0 2348.6 903.5 2346.7 903.5 2340.5C903.5 2333.8 903.7 2333.0 908.6 2324.8C915.8 2312.9 916.5 2310.4 916.5 2297.0C916.5 2285.8 916.4 2285.3 912.9 2278.0C905.9 2263.5 895.9 2256.0 883.4 2256.0C876.5 2256.0 875.5 2255.4 876.9 2251.7C878.1 2248.5 877.2 2247.5 874.9 2249.6C873.9 2250.5 872.6 2250.9 871.9 2250.5C869.9 2249.2 871.6 2230.4 875.0 2216.2C882.1 2186.6 883.1 2180.1 885.1 2148.4C886.3 2129.2 885.6 2105.5 882.9 2078.5C880.3 2051.8 872.1 2006.6 865.4 1982.3C863.5 1975.2 861.0 1966.2 859.9 1962.3C857.2 1952.0 857.4 1941.9 860.4 1935.5C863.7 1928.6 868.8 1924.2 880.5 1918.1C902.8 1906.5 927.0 1887.8 944.1 1868.8C970.9 1839.2 987.0 1803.0 987.0 1772.7C987.0 1757.9 983.7 1750.8 969.0 1734.0C940.6 1701.6 923.2 1673.5 913.7 1644.5C907.5 1625.8 905.8 1617.0 905.3 1600.4C904.2 1569.3 910.2 1543.5 926.3 1509.7C931.3 1499.2 932.1 1496.7 931.0 1496.0C927.0 1493.5 904.9 1493.6 894.1 1496.1C891.6 1496.7 885.0 1499.4 879.4 1502.1C859.3 1511.9 843.6 1530.8 836.2 1554.0C832.0 1567.3 831.5 1571.2 831.5 1589.0C831.6 1607.5 833.4 1617.7 838.9 1631.9C842.7 1641.4 841.1 1641.0 833.1 1630.1C819.7 1612.0 811.6 1586.4 812.1 1563.7C812.2 1559.5 812.0 1555.7 811.7 1555.3C810.0 1553.7 801.4 1577.2 797.9 1593.1C795.8 1602.3 795.5 1606.2 795.6 1626.5C795.6 1639.9 796.1 1652.8 796.8 1657.5C798.2 1666.3 799.2 1672.7 801.5 1687.0C806.3 1716.9 807.3 1745.2 804.5 1768.5C799.6 1809.6 784.1 1848.6 759.1 1882.3C755.1 1887.8 751.6 1891.9 751.3 1891.6C751.0 1891.3 752.6 1886.8 755.0 1881.5C767.2 1853.6 772.2 1831.0 772.2 1804.4C772.1 1784.3 770.1 1768.4 765.8 1754.2C764.4 1749.6 763.0 1750.2 763.0 1755.5C763.0 1758.0 762.6 1760.0 762.1 1760.0C760.7 1760.0 756.4 1745.9 753.5 1731.6C751.2 1719.8 749.3 1713.9 748.9 1716.5C748.8 1717.0 748.6 1728.8 748.5 1742.5C748.4 1756.2 747.8 1771.8 747.1 1777.0C738.3 1846.7 710.1 1903.7 662.5 1948.0C648.6 1960.9 623.8 1980.0 604.5 1992.6C588.3 2003.1 567.3 2022.4 558.8 2034.5C554.4 2040.9 548.1 2052.6 544.5 2061.2C543.0 2065.0 541.3 2068.0 540.7 2068.0C538.3 2068.0 542.5 2044.6 547.7 2028.8C555.3 2005.7 567.9 1987.4 596.9 1957.6C617.5 1936.3 621.8 1931.5 620.8 1930.5C620.5 1930.2 614.8 1934.6 607.9 1940.2C588.8 1955.9 570.5 1966.4 585.9 1952.8C589.8 1949.4 592.8 1946.4 592.6 1946.2C592.4 1946.0 588.0 1947.4 582.8 1949.3C568.0 1954.9 553.5 1959.6 540.6 1963.0C519.0 1968.7 506.0 1974.7 490.7 1986.1C485.6 1989.9 481.3 1992.5 481.2 1992.0C480.7 1990.6 486.3 1981.7 492.6 1973.9C500.4 1964.1 513.3 1952.7 527.8 1942.8C551.3 1926.7 557.5 1922.2 566.5 1914.5C588.2 1896.0 607.8 1870.1 621.6 1842.0C627.1 1830.9 634.0 1814.2 634.0 1812.2C634.0 1811.3 627.4 1817.1 619.2 1825.2C593.0 1851.4 569.0 1868.3 537.9 1882.5C519.0 1891.1 506.7 1895.1 470.0 1904.6C420.5 1917.4 389.9 1936.7 370.3 1967.4C364.7 1976.0 365.1 1975.5 364.4 1974.7C363.3 1973.7 369.8 1955.4 374.6 1945.7C392.8 1909.3 419.1 1888.3 473.0 1867.3C510.2 1852.8 529.2 1844.2 526.3 1843.3C525.8 1843.1 520.4 1844.7 514.4 1846.9C490.0 1855.9 469.4 1859.0 435.1 1859.0C411.9 1859.0 411.5 1859.0 395.7 1862.6C387.0 1864.5 379.6 1865.9 379.3 1865.6C378.3 1864.7 387.7 1858.7 397.5 1854.0C403.1 1851.3 418.4 1845.6 431.7 1841.2C457.4 1832.6 469.2 1827.5 484.3 1818.7C512.0 1802.3 539.3 1775.6 558.7 1745.7C566.9 1733.1 577.4 1714.1 576.7 1713.3C576.3 1713.0 571.0 1718.0 564.9 1724.4C540.2 1750.2 512.7 1770.3 485.4 1782.3C454.7 1795.7 425.0 1798.2 386.4 1790.4C369.6 1787.0 352.2 1786.2 342.0 1788.4C337.9 1789.3 330.2 1792.1 324.5 1794.9C319.0 1797.6 314.3 1799.7 314.1 1799.5C313.3 1798.6 318.4 1792.0 323.7 1786.9C340.1 1771.3 352.9 1766.5 387.5 1763.0C398.0 1762.0 410.0 1760.4 414.3 1759.5C438.8 1754.4 462.1 1742.3 482.1 1724.3C492.4 1715.0 494.3 1712.9 509.0 1694.0C515.2 1686.0 520.8 1678.9 521.4 1678.1C522.3 1676.9 522.0 1676.8 520.0 1677.2C492.1 1683.4 478.7 1685.1 468.6 1683.6C462.0 1682.6 463.7 1681.4 475.6 1678.6C481.1 1677.3 488.4 1675.4 492.0 1674.3C495.6 1673.2 501.9 1671.3 506.0 1670.0C516.5 1666.9 533.2 1658.4 542.3 1651.5C553.0 1643.5 552.8 1641.9 541.8 1646.9C533.8 1650.6 513.4 1656.5 502.0 1658.5C491.0 1660.4 465.2 1660.4 454.5 1658.5C439.3 1655.8 424.8 1651.0 411.7 1644.3C398.0 1637.4 367.3 1614.0 371.9 1614.0C372.6 1614.0 376.4 1615.5 380.3 1617.4C398.2 1625.8 412.7 1629.0 435.5 1629.7C473.2 1630.9 503.7 1620.6 544.6 1592.9C550.1 1589.1 555.5 1585.1 556.6 1583.9L558.5 1581.7L555.5 1582.4C532.3 1587.4 526.0 1588.3 511.0 1588.4C494.5 1588.4 490.3 1587.8 472.8 1582.8C456.2 1578.1 456.8 1577.1 475.7 1577.7C500.4 1578.6 519.3 1574.4 542.3 1562.9C565.4 1551.4 581.1 1539.0 609.5 1509.7C631.4 1487.1 644.6 1475.2 658.7 1465.3C663.8 1461.8 668.2 1458.4 668.6 1457.8C670.3 1455.0 654.5 1462.7 629.7 1476.7C596.8 1495.2 576.6 1502.2 551.2 1503.7C538.5 1504.4 536.2 1503.1 545.8 1500.5C573.3 1492.9 590.5 1482.3 616.0 1457.0C649.6 1423.6 671.5 1407.9 702.0 1395.4C742.8 1378.8 784.7 1375.6 827.5 1385.9C849.8 1391.3 872.3 1401.4 898.0 1417.5C915.2 1428.3 917.8 1429.6 927.0 1432.4C939.1 1436.0 947.0 1436.6 956.8 1434.6C970.4 1431.8 972.9 1430.3 986.0 1416.7C1016.7 1384.8 1057.6 1358.0 1102.5 1340.5C1116.3 1335.1 1116.4 1334.9 1116.1 1319.1C1115.8 1300.3 1121.2 1287.2 1136.8 1269.7C1142.1 1263.7 1148.6 1251.0 1149.5 1244.7C1150.5 1238.3 1148.9 1238.6 1144.4 1245.8C1139.6 1253.3 1127.1 1265.7 1119.3 1270.8C1113.0 1274.8 1107.2 1277.1 1088.6 1283.0C1072.2 1288.1 1065.1 1293.6 1056.9 1307.1C1051.6 1316.0 1042.2 1326.2 1036.3 1329.7C1030.3 1333.2 1020.8 1336.0 1014.9 1336.0C1005.5 1336.0 993.7 1341.4 986.6 1348.9C982.8 1352.8 981.6 1352.8 982.4 1348.9C984.5 1338.1 994.2 1325.8 1004.2 1321.2C1006.9 1320.0 1011.0 1318.1 1013.4 1316.9C1018.7 1314.5 1025.4 1308.1 1028.0 1303.1C1031.8 1295.6 1033.0 1289.0 1033.0 1276.0C1033.0 1244.6 1045.5 1224.6 1078.4 1203.3C1103.4 1187.0 1105.5 1185.5 1113.8 1177.6C1123.9 1167.9 1124.5 1165.3 1115.1 1171.6C1111.3 1174.1 1104.4 1177.5 1099.8 1179.1C1092.1 1181.8 1090.4 1182.0 1076.9 1182.0L1062.4 1182.0L1056.4 1185.6C1045.9 1192.1 1045.1 1192.5 1044.5 1191.8C1044.1 1191.5 1045.9 1188.0 1048.5 1184.1C1055.9 1172.9 1065.4 1167.2 1079.5 1165.6C1093.1 1164.1 1101.2 1157.7 1113.6 1138.9C1122.7 1124.9 1126.7 1120.4 1133.5 1116.5C1136.6 1114.6 1138.0 1113.1 1138.0 1111.7C1138.1 1110.5 1138.7 1108.4 1139.5 1107.0C1140.3 1105.6 1140.9 1102.8 1141.0 1100.7C1141.0 1095.3 1143.7 1091.3 1148.8 1088.8L1153.2 1086.7L1152.6 1081.8C1151.5 1073.9 1148.5 1067.2 1134.2 1040.3C1121.1 1015.5 1120.6 1014.8 1113.3 1008.2C1103.2 999.3 1093.2 987.6 1085.3 975.7C1081.7 970.3 1078.4 966.2 1078.0 966.7C1077.6 967.1 1076.8 970.2 1076.1 973.5C1066.4 1021.1 1043.4 1073.5 1018.7 1104.5C995.2 1133.9 974.0 1148.2 943.0 1155.5C913.8 1162.4 900.2 1169.5 884.9 1185.8C877.5 1193.7 875.7 1196.2 859.5 1221.0C839.4 1251.7 823.0 1260.2 791.5 1256.0C787.6 1255.5 779.3 1254.4 773.0 1253.6C753.0 1250.9 730.6 1252.1 718.1 1256.5C713.2 1258.2 711.0 1258.4 711.0 1257.2C711.0 1255.5 725.3 1245.8 732.8 1242.3C759.3 1230.1 761.7 1228.7 771.2 1220.3C784.2 1208.8 791.9 1196.4 801.5 1172.1C808.3 1154.8 810.1 1151.1 817.7 1139.5C835.8 1112.0 859.3 1096.2 904.1 1081.4C933.3 1071.8 950.9 1061.5 971.0 1042.3C983.6 1030.3 992.1 1019.9 1000.8 1005.7C1007.6 994.8 1017.4 976.1 1016.7 975.4C1016.5 975.1 1011.2 980.0 1004.9 986.3C991.3 999.8 978.9 1009.3 966.0 1015.9C945.0 1026.7 933.8 1029.0 901.8 1029.0C878.1 1029.0 871.2 1029.9 858.7 1034.8C841.5 1041.5 829.4 1050.7 803.5 1076.5C782.3 1097.6 773.4 1105.7 762.5 1113.5C735.1 1133.1 709.9 1136.8 687.1 1124.3C677.9 1119.4 671.0 1113.8 655.3 1098.7C633.7 1078.1 627.1 1072.9 613.2 1066.0C596.2 1057.6 579.3 1055.6 557.2 1059.6C552.2 1060.5 553.3 1058.6 560.2 1054.6C579.2 1043.2 596.7 1040.5 628.6 1043.9C654.3 1046.6 673.7 1043.7 693.2 1034.0C708.3 1026.6 719.0 1018.1 741.5 995.5C772.1 964.9 790.1 954.1 819.3 948.5C840.7 944.4 857.5 945.5 900.5 953.6C921.2 957.5 944.0 954.4 962.5 945.2C971.5 940.8 991.0 927.2 991.0 925.3C991.0 924.3 990.1 924.4 987.0 926.0C981.9 928.6 979.0 928.6 979.0 926.0C979.0 923.4 979.1 923.4 972.9 927.2C966.5 931.3 956.9 932.1 947.1 929.6C936.2 926.8 932.8 927.4 926.0 933.3C921.7 937.0 920.8 935.3 924.5 930.4C930.9 922.0 936.0 919.3 947.2 918.1C951.8 917.7 957.1 916.5 959.0 915.5C963.2 913.3 985.6 890.7 984.0 890.2C983.4 890.0 981.5 890.3 979.8 890.9C972.5 893.5 958.9 891.6 951.4 886.9C947.5 884.5 946.8 882.4 950.2 883.4C955.2 884.9 962.7 885.2 966.7 884.1C973.5 882.3 989.3 870.7 987.3 869.0C986.9 868.6 982.5 866.6 977.5 864.5C962.0 858.1 958.2 856.2 952.3 852.3C938.9 843.5 926.0 830.7 913.5 814.0C906.6 804.7 900.4 798.4 893.5 793.8C884.0 787.4 881.2 784.3 879.4 778.2C878.3 774.2 876.4 771.2 872.6 767.1C852.1 745.2 845.0 729.7 835.2 685.5C829.1 657.6 828.8 656.7 825.7 655.2C821.5 653.2 819.6 649.7 820.3 644.8C820.7 642.0 820.2 639.2 818.9 635.8C817.9 633.1 817.0 629.8 817.0 628.4C817.0 627.0 816.2 624.6 815.1 623.2C812.1 618.8 811.7 616.3 813.6 613.1C816.3 608.5 814.9 605.7 806.5 599.5C802.4 596.5 798.6 594.0 798.0 594.0C797.4 594.0 795.5 595.7 793.7 597.8C792.0 599.8 787.9 604.2 784.8 607.6C781.6 610.9 779.0 614.3 779.0 615.1C779.0 623.0 773.8 628.0 765.8 628.0C756.8 628.0 751.9 624.6 749.3 616.4C747.8 611.4 747.8 611.1 749.9 606.8C751.9 602.5 754.3 600.8 761.2 598.7C762.1 598.4 764.5 595.5 766.7 592.3C768.8 589.1 773.5 582.7 777.3 578.0C781.0 573.4 783.8 569.1 783.6 568.5C781.6 563.9 779.9 556.4 780.5 554.3C780.8 552.8 782.6 550.3 784.5 548.6C786.7 546.5 788.1 544.2 788.6 541.5C789.1 538.6 790.5 536.4 793.6 533.5C796.3 531.0 798.0 528.5 798.0 527.2C798.0 524.4 800.9 521.5 805.5 519.6C808.2 518.4 809.0 517.5 809.0 515.5C809.0 512.4 812.8 508.3 816.5 507.4C818.1 507.0 820.8 507.4 823.2 508.4C827.9 510.2 828.4 510.0 832.6 503.9L835.4 499.9L827.1 491.7C817.1 481.9 814.0 476.4 814.0 468.3C814.0 462.6 815.8 458.0 818.1 458.0C818.6 458.0 821.9 460.4 825.4 463.3C833.4 469.8 843.7 476.0 846.8 476.0C849.8 476.0 850.4 474.1 849.2 468.4L848.2 463.8L854.4 456.7C857.7 452.8 863.5 446.7 867.1 443.1C870.8 439.5 878.6 430.6 884.6 423.5C898.3 407.1 917.5 385.0 959.0 337.9C1015.7 273.6 1090.6 195.0 1120.0 168.9C1145.2 146.5 1173.9 128.6 1198.3 120.1C1207.9 116.8 1209.0 116.5 1209.0 117.9C1209.0 118.9 1191.9 140.8 1167.6 171.1C1159.9 180.7 1145.7 196.6 1136.1 206.5C1081.8 262.5 975.7 383.3 914.5 459.0C908.8 466.0 906.0 470.3 906.0 472.1C906.0 475.6 899.8 485.5 893.7 491.8C887.3 498.4 885.5 499.4 880.8 499.1C878.7 499.0 877.0 499.4 877.0 499.9C877.0 502.4 888.8 517.6 893.6 521.4C896.6 523.6 899.0 526.1 899.0 526.8C899.0 529.2 892.7 532.0 887.4 532.0C879.6 532.0 873.2 529.6 865.2 523.5C861.2 520.5 857.3 518.0 856.6 518.0C855.0 518.0 851.0 522.2 851.0 523.8C851.0 524.5 853.4 528.3 856.2 532.2C861.3 539.2 861.5 539.7 861.9 546.8C862.3 555.2 861.1 562.1 856.7 576.8C853.3 588.4 853.6 593.5 857.7 595.6C862.0 597.7 864.0 600.2 864.0 603.5C864.0 607.5 869.9 619.1 874.6 624.2C878.4 628.4 878.5 629.0 876.8 633.7C875.7 636.7 875.9 637.5 878.4 642.2C883.5 651.6 895.7 669.3 903.4 678.4C917.7 695.2 923.2 705.0 929.0 724.0C933.4 738.4 934.3 740.0 938.1 740.0C941.8 740.0 944.2 741.2 950.0 746.0C956.2 751.1 956.9 751.4 970.8 754.8C983.9 758.1 993.3 762.0 1000.5 767.1C1005.0 770.3 1005.0 770.3 1010.7 769.1C1013.9 768.4 1018.9 766.7 1021.9 765.4C1026.9 763.1 1028.0 762.9 1037.4 763.5C1045.7 764.0 1048.5 763.8 1052.9 762.3C1059.6 760.1 1060.8 758.0 1055.3 758.0C1050.4 757.9 1041.5 754.3 1034.3 749.3C1029.1 745.8 1028.3 745.5 1021.6 745.5C1015.3 745.5 1013.8 745.9 1010.1 748.3C1004.4 752.1 1003.7 750.9 1008.6 745.9C1016.9 737.4 1024.8 735.5 1044.2 737.5C1053.1 738.4 1054.0 737.6 1048.2 733.7C1045.5 732.0 1043.2 729.0 1040.6 724.0C1037.8 718.6 1036.0 716.4 1033.9 715.6C1028.9 713.8 1032.1 711.1 1037.7 712.5C1039.1 712.8 1043.1 715.8 1046.4 719.0C1056.2 728.4 1063.7 730.2 1073.6 725.6C1081.0 722.2 1081.0 721.3 1073.5 720.8C1069.1 720.5 1066.5 719.8 1065.1 718.6C1062.0 715.8 1062.5 714.9 1066.8 715.6C1075.4 717.0 1085.2 709.7 1091.0 697.8C1094.7 690.3 1094.7 690.4 1091.1 687.4C1087.7 684.6 1086.5 680.8 1088.1 677.8C1089.1 675.9 1088.8 675.3 1085.2 672.3C1079.6 667.6 1077.0 663.1 1077.0 657.9C1076.9 655.0 1076.1 652.1 1074.5 649.5C1073.1 647.3 1072.0 644.3 1072.0 642.9C1072.0 641.5 1070.8 638.8 1069.4 636.9C1066.9 633.6 1064.0 627.6 1064.0 625.9C1064.0 624.5 1071.1 624.9 1075.5 626.6C1083.1 629.5 1083.0 629.5 1083.0 626.2C1083.0 622.8 1086.4 618.2 1090.4 616.1C1094.3 613.9 1093.5 613.3 1087.6 613.8C1081.4 614.3 1078.0 612.0 1078.0 607.4C1078.0 604.6 1084.0 593.0 1087.5 589.0C1089.8 586.3 1094.0 579.7 1094.0 578.6C1094.0 578.3 1092.5 578.0 1090.6 578.0C1083.6 578.0 1077.0 573.7 1077.0 569.1C1077.0 567.7 1077.9 564.9 1079.0 563.0C1080.0 561.1 1081.8 557.7 1082.9 555.4C1084.0 553.2 1085.8 550.5 1087.0 549.5C1088.1 548.5 1089.0 547.1 1089.0 546.4C1089.0 545.7 1090.2 543.8 1091.6 542.1C1093.4 539.9 1093.9 538.4 1093.5 536.9C1092.9 535.0 1092.3 534.8 1088.4 535.4C1085.4 535.8 1082.6 535.4 1080.0 534.4C1072.9 531.5 1072.3 527.4 1077.5 516.5C1079.4 512.4 1081.4 508.9 1082.0 508.5C1082.5 508.2 1083.0 507.0 1083.0 506.0C1083.0 504.9 1084.3 502.5 1086.0 500.7C1090.3 495.8 1090.0 492.4 1085.4 491.1C1077.6 488.9 1076.2 484.7 1080.6 476.4C1082.9 472.1 1083.1 471.1 1082.0 468.3C1080.9 465.2 1081.5 446.0 1082.7 446.0C1084.1 446.0 1096.6 460.7 1097.0 462.8C1097.4 464.6 1098.7 465.7 1102.5 467.2C1111.5 470.7 1113.8 475.1 1109.6 481.3C1108.1 483.4 1107.0 485.3 1107.0 485.5C1107.0 486.9 1115.1 490.9 1119.0 491.5C1121.5 491.9 1124.8 493.0 1126.5 494.0C1128.2 495.0 1131.2 496.1 1133.2 496.4C1137.9 497.3 1142.0 501.9 1142.0 506.5C1142.0 509.7 1138.0 514.4 1132.5 517.5C1131.1 518.4 1130.9 519.0 1131.8 520.5C1132.4 521.6 1133.1 523.3 1133.4 524.2C1133.8 525.6 1135.0 526.0 1138.7 526.0C1141.8 526.0 1144.6 526.7 1146.5 528.0C1148.2 529.1 1150.8 530.0 1152.5 530.0C1157.5 530.1 1163.5 533.4 1164.9 536.9C1166.6 540.9 1165.3 544.4 1160.4 549.0C1158.5 550.8 1157.2 552.6 1157.7 553.0C1158.1 553.4 1161.6 554.3 1165.3 554.9C1179.0 557.2 1188.0 562.5 1188.0 568.2C1188.0 569.4 1186.0 572.1 1183.3 574.7C1178.2 579.4 1178.4 579.8 1185.0 577.5C1190.8 575.5 1193.6 575.6 1195.9 578.1L1197.9 580.3L1200.5 574.4C1203.0 568.9 1206.5 564.0 1208.1 564.0C1209.1 564.0 1213.0 573.5 1213.0 576.0C1213.0 577.1 1213.8 579.7 1214.9 581.8C1215.9 583.8 1217.0 586.9 1217.3 588.7C1217.7 590.5 1219.3 593.8 1221.0 596.1C1224.7 601.2 1225.9 605.8 1225.6 612.9C1225.4 616.7 1224.8 618.7 1223.6 619.6C1222.0 620.7 1222.2 620.9 1225.1 621.2C1229.4 621.6 1231.9 625.5 1230.4 629.7C1229.6 632.0 1228.8 632.6 1225.7 632.8C1223.7 633.0 1222.0 633.3 1222.0 633.5C1222.0 633.7 1224.4 636.3 1227.2 639.2C1230.6 642.5 1234.3 648.0 1237.3 653.9C1242.1 663.1 1242.2 663.4 1241.0 667.6C1240.1 670.6 1240.1 672.4 1240.8 673.2C1254.7 690.6 1260.0 697.6 1260.0 698.5C1260.0 700.5 1257.4 703.3 1253.9 704.9C1251.4 706.1 1250.6 707.1 1250.9 708.5C1251.1 709.6 1251.2 712.3 1251.1 714.5C1251.1 716.7 1251.0 720.3 1251.0 722.4C1251.0 724.6 1250.3 727.4 1249.5 728.7C1247.5 731.7 1247.6 733.2 1250.1 737.5C1253.1 742.5 1253.1 748.2 1250.1 751.4C1246.8 754.9 1244.0 755.7 1231.2 757.0C1225.1 757.6 1219.3 758.3 1218.5 758.7C1215.0 760.0 1214.3 764.0 1214.4 781.9L1214.5 799.4L1221.8 802.2C1229.7 805.2 1236.5 809.4 1242.1 814.7C1244.9 817.4 1247.0 818.3 1253.3 819.5C1277.8 824.2 1295.5 840.0 1300.6 861.6C1301.6 866.1 1303.6 870.7 1306.5 875.0C1315.5 888.7 1318.1 896.2 1318.1 908.5C1318.1 913.5 1317.4 920.0 1316.5 923.0C1314.4 930.9 1314.6 933.6 1318.4 944.1C1323.3 957.4 1324.3 963.6 1323.9 977.3L1323.5 989.3L1332.3 994.6C1337.1 997.5 1343.1 1000.6 1345.5 1001.6C1349.8 1003.2 1350.2 1003.2 1354.0 1001.5C1358.0 999.7 1358.1 999.7 1364.8 1002.3C1368.5 1003.8 1372.6 1005.0 1373.8 1005.0C1376.5 1005.0 1379.7 1006.5 1382.6 1009.1C1385.0 1011.4 1387.8 1010.6 1399.0 1005.0C1413.8 997.5 1421.0 996.5 1428.6 1000.5C1431.2 1001.9 1434.3 1003.0 1435.6 1003.0C1438.2 1003.0 1449.4 1012.4 1452.4 1017.1C1453.5 1018.9 1454.4 1022.7 1454.8 1026.5C1455.1 1030.8 1455.7 1033.0 1456.5 1033.0C1458.6 1033.0 1459.0 1030.4 1459.0 1015.2C1459.0 1007.1 1459.7 995.8 1460.5 990.0C1462.3 977.1 1462.3 978.0 1460.7 978.0C1458.8 978.0 1455.7 981.6 1451.6 988.7C1446.1 998.1 1441.5 999.9 1446.1 990.9C1447.2 988.6 1447.9 986.5 1447.6 986.2C1447.2 985.9 1443.7 986.4 1439.7 987.3C1431.8 989.2 1427.0 989.5 1427.0 988.1C1427.0 987.7 1429.7 985.6 1433.1 983.5C1436.4 981.5 1440.4 978.1 1441.9 975.9C1446.5 969.6 1453.3 958.0 1452.7 957.4C1452.4 957.1 1450.0 958.0 1447.4 959.4C1438.7 963.9 1432.3 965.9 1418.8 968.5C1399.6 972.3 1392.4 976.4 1386.7 987.0C1384.0 991.9 1382.8 989.7 1384.1 982.0C1385.9 970.8 1392.2 960.7 1403.2 951.0C1407.8 947.1 1407.3 945.7 1401.4 946.6C1396.2 947.3 1389.7 946.3 1390.2 944.8C1390.4 944.2 1394.8 942.1 1400.0 940.0C1414.7 934.3 1429.0 926.4 1429.0 924.0C1429.0 923.5 1426.0 924.4 1422.2 926.0C1409.0 931.6 1390.9 933.7 1379.0 930.9C1367.2 928.1 1356.8 930.2 1349.9 936.7C1346.1 940.2 1345.3 937.9 1348.4 932.6C1353.1 924.6 1360.4 920.2 1375.6 916.2C1386.3 913.4 1393.8 910.0 1401.7 904.4C1408.8 899.3 1413.0 894.4 1423.3 879.0C1432.2 865.7 1441.9 854.1 1449.3 847.9C1452.5 845.2 1454.7 843.0 1454.1 843.0C1450.3 843.0 1434.6 853.4 1421.0 865.0C1414.1 870.8 1413.0 871.5 1413.0 869.7C1413.0 867.3 1421.7 856.8 1431.3 847.7C1439.2 840.2 1440.1 839.0 1437.5 839.6C1433.0 840.6 1429.3 842.7 1420.3 849.2C1405.2 860.1 1394.2 863.6 1378.8 862.7C1373.3 862.3 1367.8 861.4 1366.3 860.6C1363.0 858.9 1363.9 858.4 1372.0 857.7C1379.9 856.9 1387.6 854.1 1394.5 849.5C1399.6 846.1 1402.0 843.3 1411.0 830.0C1416.8 821.5 1424.7 811.4 1428.5 807.5C1441.4 794.5 1458.7 783.0 1474.5 776.9C1484.3 773.1 1485.7 772.0 1480.4 772.0C1471.3 772.0 1457.4 774.5 1441.5 779.0C1414.2 786.8 1407.2 787.4 1393.2 783.5C1385.7 781.4 1385.6 779.6 1393.1 779.4C1406.4 779.0 1419.8 773.3 1431.1 763.3C1451.5 745.2 1463.8 738.5 1493.4 729.5C1503.3 726.5 1525.3 717.0 1524.4 716.1C1523.5 715.1 1511.2 716.0 1493.6 718.1C1474.4 720.5 1464.9 719.9 1452.1 715.6C1441.4 712.0 1421.8 700.2 1424.7 699.3C1425.4 699.0 1429.9 699.8 1434.7 701.1C1442.0 702.9 1445.3 703.2 1454.5 702.8C1468.8 702.1 1478.6 698.9 1502.0 687.1C1520.7 677.7 1531.3 673.7 1542.5 672.0C1546.3 671.4 1549.6 670.7 1549.9 670.4C1551.5 668.8 1543.2 667.0 1530.1 666.1C1524.8 665.8 1520.5 665.0 1520.3 664.4C1519.9 663.1 1528.7 661.0 1535.0 661.0C1540.2 661.0 1542.2 659.7 1539.3 658.1C1533.0 654.8 1505.6 653.7 1494.5 656.4C1483.7 659.0 1486.2 656.1 1501.3 648.5C1526.4 636.0 1547.7 634.2 1588.8 641.1C1602.6 643.4 1608.3 643.5 1622.6 641.5C1628.6 640.6 1636.1 640.0 1639.3 640.1C1642.4 640.2 1645.2 640.1 1645.5 639.8C1646.4 639.0 1639.2 633.6 1633.0 630.4C1630.0 628.9 1623.5 626.4 1618.5 624.9C1613.6 623.5 1609.4 621.8 1609.2 621.2C1608.8 619.9 1635.4 618.5 1646.4 619.3C1659.8 620.2 1676.4 625.9 1688.0 633.6C1690.9 635.5 1693.5 636.8 1693.8 636.5C1694.8 635.5 1688.5 627.8 1683.8 624.4C1681.2 622.4 1679.0 620.4 1679.0 619.9C1679.0 618.8 1678.7 618.7 1685.1 620.6C1693.3 623.0 1699.1 626.4 1708.1 633.6C1712.6 637.2 1716.4 639.9 1716.7 639.6C1717.3 639.0 1720.6 625.0 1722.5 614.5C1723.6 608.9 1723.8 603.8 1723.4 597.2C1722.6 585.7 1723.5 585.4 1731.3 594.3C1743.3 608.1 1753.2 624.9 1756.1 636.4C1756.7 639.0 1757.9 641.4 1758.6 641.7C1761.2 642.7 1780.7 625.2 1788.2 615.3C1792.0 610.2 1795.6 606.2 1796.1 606.5C1798.2 607.9 1796.2 642.4 1793.6 649.8C1792.8 652.1 1790.5 656.5 1788.5 659.4C1786.6 662.3 1785.0 665.0 1785.0 665.3C1785.0 665.6 1787.3 666.3 1790.2 666.9C1797.6 668.5 1803.3 671.3 1811.0 677.0C1819.7 683.4 1823.6 685.0 1831.0 685.0C1838.3 685.0 1838.7 686.3 1832.9 690.8C1828.8 693.8 1823.5 696.2 1817.7 697.5C1814.4 698.2 1814.1 697.8 1825.3 712.0C1832.0 720.6 1835.7 724.1 1845.3 731.3C1851.8 736.2 1857.7 741.4 1858.5 743.1C1859.4 744.7 1861.0 750.1 1862.0 755.1C1864.6 767.0 1866.5 770.3 1883.9 792.7C1906.5 822.0 1915.8 832.9 1918.6 833.6C1921.5 834.4 1928.0 841.4 1935.5 852.1C1941.7 860.9 1950.0 870.8 1960.6 882.0C1964.5 886.1 1968.5 890.9 1969.4 892.7C1972.2 898.3 1971.5 905.2 1967.0 915.1C1962.9 923.8 1962.9 923.8 1963.2 935.2C1963.4 948.5 1961.9 953.2 1955.2 959.2C1944.7 968.7 1930.9 968.3 1923.4 958.3C1921.8 956.2 1917.8 950.5 1914.5 945.6C1908.7 937.0 1899.0 927.6 1898.2 929.9C1897.7 931.4 1907.3 945.0 1914.0 952.4C1920.9 960.1 1922.6 963.9 1921.4 968.8C1920.0 974.2 1915.0 977.3 1908.5 976.7C1885.2 974.3 1878.7 969.7 1877.0 954.3C1875.9 943.3 1874.5 940.3 1869.9 938.0C1867.8 936.9 1865.6 936.0 1865.1 936.0C1864.5 936.0 1857.8 941.3 1850.3 947.8C1823.6 970.6 1802.3 986.5 1777.9 1001.9C1768.3 1007.9 1759.4 1013.7 1758.2 1014.7L1755.8 1016.5L1765.5 1031.5C1777.1 1049.5 1784.4 1064.3 1789.9 1080.8C1794.0 1092.8 1794.9 1098.0 1793.1 1098.0C1792.5 1098.0 1790.5 1097.1 1788.6 1095.9C1786.6 1094.8 1784.5 1094.0 1783.9 1094.2C1783.3 1094.4 1789.9 1099.9 1798.5 1106.4C1843.4 1140.4 1861.0 1170.6 1861.0 1213.9C1861.0 1230.0 1859.1 1241.1 1853.4 1257.8C1850.9 1265.2 1849.1 1271.4 1849.3 1271.7C1849.6 1272.0 1855.4 1269.5 1862.2 1266.2C1869.0 1262.9 1879.0 1258.7 1884.5 1257.0C1939.0 1239.8 1963.5 1230.5 1994.5 1215.2C2018.4 1203.3 2022.2 1202.0 2033.9 1202.0C2050.5 1202.0 2063.8 1207.7 2076.2 1220.2C2086.2 1230.3 2091.2 1240.2 2093.0 1253.5C2096.5 1279.0 2112.6 1314.7 2147.8 1374.9C2162.6 1400.2 2164.0 1403.6 2164.0 1413.0C2164.0 1418.9 2163.4 1421.5 2160.1 1429.3C2158.0 1434.4 2155.7 1441.7 2155.1 1445.5C2153.6 1454.0 2153.5 1491.3 2154.9 1502.0C2156.7 1515.0 2156.3 1518.9 2151.9 1532.1C2141.6 1563.3 2119.9 1613.0 2116.6 1613.0C2115.9 1613.0 2113.3 1610.4 2110.8 1607.2C2086.7 1576.3 2065.9 1529.0 2066.0 1505.2C2066.0 1497.6 2067.7 1493.3 2073.8 1484.3C2080.7 1474.2 2085.3 1471.0 2092.8 1471.0C2101.3 1471.0 2106.4 1464.6 2106.3 1454.0C2106.3 1443.4 2101.5 1437.0 2093.8 1437.0C2090.0 1437.0 2089.8 1436.8 2087.2 1431.2C2084.6 1425.8 2084.5 1424.5 2083.9 1405.5C2083.3 1385.3 2083.2 1384.8 2077.9 1366.5C2073.0 1349.5 2061.7 1320.3 2054.0 1304.5C2044.0 1284.1 2039.6 1280.0 2027.4 1280.0C2021.3 1280.0 2019.8 1280.4 2015.5 1283.1C2007.7 1288.1 1993.6 1299.8 1978.3 1314.2C1948.6 1342.0 1929.5 1360.5 1929.2 1361.7C1929.0 1362.4 1930.3 1363.1 1932.2 1363.4C1948.3 1365.9 1952.5 1366.4 1982.2 1368.9C1991.4 1369.7 1993.8 1370.3 1999.2 1373.2C2017.2 1382.7 2028.0 1402.9 2026.7 1424.5C2026.1 1435.0 2023.3 1442.0 2015.6 1452.8C2012.1 1457.6 2007.9 1464.2 2006.3 1467.5C1996.8 1486.5 1979.3 1537.0 1972.5 1564.9C1965.4 1593.9 1965.1 1594.9 1962.4 1599.0C1959.3 1603.7 1956.1 1606.2 1944.8 1612.9C1932.1 1620.4 1922.2 1633.4 1904.1 1666.0L1895.0 1682.6L1876.3 1696.7C1847.2 1718.5 1814.5 1740.0 1810.3 1740.0C1807.4 1740.0 1807.5 1708.2 1810.5 1686.5C1815.1 1653.2 1825.4 1622.1 1834.5 1614.2C1837.7 1611.3 1857.4 1604.0 1861.9 1604.0C1862.8 1604.0 1866.0 1605.3 1869.0 1607.0C1877.7 1611.6 1883.5 1610.5 1889.3 1602.8C1893.6 1597.2 1894.7 1591.3 1892.7 1584.1C1889.0 1570.7 1890.5 1566.6 1904.3 1552.2C1917.7 1538.2 1924.1 1528.4 1937.4 1502.0C1949.1 1478.5 1957.3 1458.5 1959.1 1448.8C1960.2 1443.0 1960.1 1441.6 1958.6 1437.7C1956.2 1431.2 1951.6 1429.0 1940.9 1429.0C1931.7 1429.0 1906.6 1432.5 1887.0 1436.4C1871.0 1439.6 1847.3 1443.8 1834.6 1445.6C1823.7 1447.1 1822.5 1447.7 1813.0 1456.0C1795.3 1471.5 1780.4 1478.1 1768.0 1475.8C1759.1 1474.2 1753.3 1469.5 1745.2 1457.5C1739.4 1448.7 1739.3 1448.7 1729.7 1449.2C1715.5 1450.1 1714.3 1450.9 1708.5 1462.6C1689.3 1501.0 1650.4 1531.2 1600.5 1546.4C1559.9 1558.8 1551.9 1561.8 1541.8 1568.4C1529.1 1576.7 1512.5 1585.2 1502.5 1588.3C1486.9 1593.2 1474.9 1594.4 1451.5 1593.4C1415.8 1591.9 1393.5 1592.2 1386.0 1594.3C1370.6 1598.5 1357.3 1607.5 1352.4 1617.1C1349.1 1623.7 1349.3 1626.6 1354.1 1640.0C1365.8 1673.0 1369.0 1686.6 1369.0 1703.9C1369.0 1727.6 1362.9 1746.2 1347.7 1769.0C1342.9 1776.2 1340.2 1779.8 1325.7 1797.8C1322.0 1802.4 1314.5 1813.9 1308.9 1823.3C1288.5 1858.1 1276.4 1875.0 1252.0 1902.8C1224.3 1934.5 1220.2 1940.2 1215.4 1954.5C1207.6 1977.7 1213.1 1999.7 1233.8 2028.6C1269.2 2078.0 1308.6 2118.3 1351.4 2148.9C1371.0 2162.9 1376.4 2170.2 1379.5 2187.5C1380.4 2192.4 1382.5 2199.3 1384.1 2202.7C1390.3 2215.8 1404.3 2231.9 1418.7 2242.6C1422.7 2245.6 1427.0 2249.5 1428.3 2251.3C1437.4 2263.6 1469.3 2334.2 1467.6 2338.5C1467.3 2339.5 1466.2 2339.8 1464.3 2339.5C1411.6 2330.3 1363.8 2319.4 1355.5 2314.6C1349.9 2311.3 1346.5 2306.8 1343.9 2299.4C1341.5 2292.5 1341.6 2283.3 1344.2 2278.5C1352.5 2263.2 1352.2 2264.2 1351.8 2254.0C1351.4 2242.5 1348.6 2235.6 1341.5 2228.5C1332.8 2219.7 1324.5 2218.1 1312.2 2222.5C1308.4 2223.9 1304.8 2225.0 1304.1 2225.0C1302.3 2225.0 1297.2 2217.3 1295.7 2212.2C1294.9 2209.6 1293.2 2203.7 1292.0 2199.0C1285.1 2173.1 1262.5 2141.4 1223.9 2103.4C1196.8 2076.8 1176.8 2060.1 1126.5 2022.3C1097.2 2000.3 1092.4 1996.0 1089.4 1989.5C1086.6 1983.6 1086.3 1975.5 1088.5 1968.9C1089.3 1966.5 1094.0 1959.2 1098.8 1952.8C1111.0 1936.4 1122.4 1918.1 1131.7 1900.0C1140.0 1883.8 1143.6 1873.8 1147.0 1858.0C1149.4 1846.9 1150.8 1824.6 1149.3 1823.7C1148.7 1823.3 1143.7 1829.1 1138.1 1836.5C1101.3 1885.6 1075.5 1909.0 1030.0 1935.0C991.3 1957.0 984.7 1961.7 973.4 1975.2C945.1 2009.1 933.7 2052.1 933.6 2124.5C933.6 2172.9 937.0 2191.2 951.2 2219.3C955.2 2227.2 955.4 2227.9 956.0 2240.0C957.2 2260.4 960.9 2267.3 982.0 2288.0C995.6 2301.4 995.8 2301.6 1001.5 2313.5C1022.9 2358.4 1034.1 2386.5 1031.7 2388.9C1030.3 2390.3 1019.8 2390.1 1004.3 2388.4ZM1423.0 1169.7C1424.7 1165.9 1424.8 1164.4 1423.9 1155.0C1423.1 1146.7 1422.5 1144.2 1421.1 1143.0C1416.6 1139.4 1417.5 1134.2 1424.7 1121.8C1427.1 1117.6 1429.4 1112.4 1429.7 1110.3C1430.2 1107.2 1431.9 1104.9 1439.6 1097.2C1447.2 1089.6 1449.0 1087.2 1449.5 1084.2C1449.8 1082.2 1450.7 1077.1 1451.5 1073.0C1453.8 1061.3 1453.7 1060.4 1449.2 1059.3C1444.3 1058.0 1443.3 1058.5 1441.3 1062.7C1440.1 1065.2 1438.4 1066.8 1435.2 1068.1C1432.8 1069.2 1429.4 1071.2 1427.7 1072.6C1425.2 1074.7 1423.8 1075.1 1419.1 1075.0C1416.0 1074.9 1413.0 1074.9 1412.5 1074.9C1411.9 1075.0 1408.1 1082.3 1404.0 1091.2C1399.9 1100.2 1391.9 1116.6 1386.3 1127.7C1380.6 1138.8 1376.0 1148.6 1376.0 1149.5C1376.0 1150.5 1377.9 1151.9 1380.8 1153.2C1393.5 1158.6 1408.1 1166.2 1413.0 1169.8C1416.0 1172.1 1419.1 1173.9 1419.8 1174.0C1420.5 1174.0 1422.0 1172.1 1423.0 1169.7ZM1356.1 1120.7C1360.9 1114.0 1371.0 1099.1 1378.5 1087.6L1392.2 1066.8L1388.0 1062.5C1383.2 1057.6 1380.0 1056.6 1376.8 1058.9C1375.5 1059.8 1371.8 1060.8 1368.5 1061.2C1349.9 1063.5 1351.4 1063.5 1347.4 1060.5L1343.7 1057.7L1330.6 1058.9C1307.3 1061.2 1308.7 1060.8 1307.3 1066.0C1306.7 1068.5 1306.1 1072.8 1306.1 1075.7C1306.0 1080.8 1306.0 1080.8 1310.3 1082.9C1315.2 1085.3 1318.0 1089.3 1318.0 1094.2C1318.1 1096.0 1318.7 1098.6 1319.5 1100.0C1320.3 1101.4 1320.9 1103.8 1321.0 1105.3C1321.0 1106.8 1322.0 1109.5 1323.2 1111.1C1324.9 1113.4 1325.5 1115.5 1325.5 1119.7L1325.5 1125.3L1335.4 1129.5C1340.9 1131.9 1345.9 1133.6 1346.4 1133.3C1347.0 1133.1 1351.4 1127.4 1356.1 1120.7ZM1594.0 1062.0C1642.7 1056.7 1699.3 1038.4 1741.2 1014.3C1748.4 1010.2 1751.1 1007.0 1747.5 1007.0C1746.6 1007.0 1741.1 1009.4 1735.1 1012.4C1693.1 1033.5 1643.4 1048.5 1593.5 1055.1C1579.5 1057.0 1571.7 1057.4 1549.5 1057.4C1517.1 1057.4 1504.9 1056.4 1477.1 1051.0C1471.4 1049.9 1465.6 1049.0 1464.1 1049.1C1461.5 1049.2 1461.5 1049.2 1464.7 1050.6C1472.5 1054.0 1505.2 1060.2 1524.5 1061.9C1531.1 1062.5 1537.8 1063.2 1539.5 1063.4C1544.9 1064.2 1583.2 1063.1 1594.0 1062.0ZM1755.9 987.3C1778.7 974.3 1825.9 940.7 1841.5 926.6C1847.7 920.9 1849.1 922.2 1821.8 908.4L1801.1 898.0L1785.7 898.0C1772.6 898.0 1769.0 897.7 1762.4 895.7C1747.0 891.3 1733.0 880.9 1724.6 867.8C1720.6 861.5 1720.1 861.2 1717.8 863.8C1708.4 874.4 1704.7 904.5 1709.9 927.5C1713.9 945.2 1729.2 979.3 1738.7 991.8C1741.7 995.7 1740.8 996.0 1755.9 987.3ZM1890.6 924.6C1892.7 922.5 1894.0 920.2 1894.0 918.6C1894.0 915.1 1893.3 915.3 1889.3 920.0C1887.0 922.6 1884.5 924.3 1881.8 925.1C1877.0 926.3 1878.2 928.0 1883.8 928.0C1886.3 928.0 1888.1 927.1 1890.6 924.6ZM1237.8 839.1C1241.6 835.5 1241.8 833.2 1238.6 826.5C1234.8 818.2 1231.1 816.6 1234.5 824.7C1235.3 826.6 1236.0 830.4 1236.0 833.1C1236.0 839.2 1235.3 839.3 1225.2 834.0C1220.9 831.8 1211.9 828.0 1205.0 825.6C1198.1 823.2 1188.7 819.8 1184.0 818.1C1173.5 814.2 1176.0 816.4 1190.0 823.2C1195.8 826.0 1201.7 828.9 1203.2 829.7C1204.6 830.4 1206.5 831.0 1207.2 831.0C1208.0 831.0 1210.9 832.1 1213.6 833.5C1216.3 834.9 1219.0 836.0 1219.5 836.0C1220.0 836.0 1221.6 836.9 1223.0 838.0C1224.4 839.1 1226.6 840.0 1228.0 840.0C1229.4 840.0 1231.2 840.5 1232.0 841.0C1234.1 842.4 1234.2 842.3 1237.8 839.1ZM1047.5 784.9C1060.9 783.1 1061.4 783.0 1063.9 780.9C1067.0 778.4 1066.1 777.6 1061.5 778.9C1056.1 780.4 1047.4 778.5 1038.4 773.9C1030.7 769.9 1023.9 768.8 1022.4 771.2C1021.9 771.9 1023.0 773.4 1025.1 774.9C1027.0 776.3 1030.3 779.3 1032.5 781.7C1037.0 786.5 1036.6 786.4 1047.5 784.9ZM1163.8 753.2C1166.0 749.3 1166.0 748.9 1164.5 746.1C1163.7 744.4 1163.0 742.0 1163.0 740.6C1163.0 737.3 1162.0 734.9 1160.9 735.6C1159.6 736.4 1159.8 741.8 1161.2 745.7C1162.4 749.0 1162.3 749.5 1159.5 756.4C1158.0 760.0 1161.4 757.5 1163.8 753.2ZM1749.1 674.1C1751.8 671.5 1754.0 668.5 1754.0 667.6C1754.0 665.1 1753.0 665.8 1746.5 672.8C1739.5 680.4 1741.7 681.6 1749.1 674.1Z"/></svg>